<svg id="Layer_1" data-name="Layer 1" xmlns="http://www.w3.org/2000/svg" viewBox="0 0 100 100"><defs><style>.cls-1{fill:none;}.cls-2{fill:#4c4c4c;}.cls-3{fill:#b00739;}</style></defs><title>consulting-and-coaching</title><path class="cls-1" d="M25.87,46.91v7.78a.77.77,0,0,0,.77.77h2.13V46.14H26.64A.77.77,0,0,0,25.87,46.91Z"/><path class="cls-1" d="M73.36,55.46a.77.77,0,0,0,.77-.77V46.91a.77.77,0,0,0-.77-.77H71.18v9.32Z"/><circle class="cls-1" cx="49.97" cy="65.29" r="1.92"/><path class="cls-2" d="M61,69A14.16,14.16,0,0,1,35.8,60.06V51.79H33.22v8.27A16.74,16.74,0,0,0,63,70.63l.31-.39-2-1.63Z"/><path class="cls-3" d="M73.36,43.56H71.14a21.18,21.18,0,0,0-42.33,0H26.64a3.35,3.35,0,0,0-3.35,3.35v7.78A3.35,3.35,0,0,0,26.64,58h4v0h.74V44.39a18.63,18.63,0,0,1,37.26,0V56.22A7.79,7.79,0,0,1,60.82,64h-7a4,4,0,1,0,0,2.58h7A10.36,10.36,0,0,0,71,58h2.36a3.35,3.35,0,0,0,3.35-3.35V46.91A3.35,3.35,0,0,0,73.36,43.56Zm0,2.58a.77.77,0,0,1,.77.77v7.78a.77.77,0,0,1-.77.77H71.18V46.14Zm-44.59,0v9.32H26.64a.77.77,0,0,1-.77-.77V46.91a.77.77,0,0,1,.77-.77ZM51.89,65.29A1.92,1.92,0,1,1,50,63.38,1.92,1.92,0,0,1,51.89,65.29Z"/><path class="cls-2" d="M56.09,38.44l0-.4-2.22,0,0,.4c-.31,3.12-1.46,5.46-3.41,7-2.94,2.26-7.88,2.85-14.69,1.75l-.44-.07-.36,2.28.44.07a40.64,40.64,0,0,0,6.38.56C46,50,49.41,49,51.79,47.2a10.29,10.29,0,0,0,3.08-3.87c1.48,3.42,4.4,5.46,8.69,6.08l.44.06.33-2.28-.44-.06C59,46.43,56.46,43.59,56.09,38.44Z"/><rect class="cls-2" x="63.32" y="51.79" width="2.19" height="7.44"/></svg>