<svg id="Layer_1" data-name="Layer 1" xmlns="http://www.w3.org/2000/svg" viewBox="0 0 30 30"><defs><style>.cls-1{fill:#b00739;}</style></defs><title>linked-in</title><path id="LinkedIn_alt_" data-name="LinkedIn (alt)" class="cls-1" d="M24.36,4H5.65A1.61,1.61,0,0,0,4,5.59V24.41A1.6,1.6,0,0,0,5.65,26H24.36A1.6,1.6,0,0,0,26,24.41V5.59A1.6,1.6,0,0,0,24.36,4ZM10.68,22.4H7.36V12.49h3.32V22.4ZM9,11.14H9A1.72,1.72,0,1,1,9,7.71a1.72,1.72,0,1,1,0,3.43ZM22.64,22.4H19.33V17.1c0-1.33-.49-2.25-1.69-2.25a1.81,1.81,0,0,0-1.7,1.22,2.34,2.34,0,0,0-.11.8V22.4H12.51s.05-9,0-9.91h3.32v1.4a3.31,3.31,0,0,1,3-1.64c2.18,0,3.82,1.42,3.82,4.47V22.4Zm-6.83-8.47,0,0v0Z"/></svg>