<svg id="Layer_1" data-name="Layer 1" xmlns="http://www.w3.org/2000/svg" viewBox="0 0 300 100"><defs><style>.cls-1{fill:#bcbcbc;}</style></defs><title>partner1</title><path class="cls-1" d="M17.28,21.69c8.63,0,17.27,0,25.91,0,.88,0,1.06.25,1.06,1.09q-.06,12.34,0,24.67c0,.91-.18,1.22-1.17,1.21-8.19,0-16.37,0-24.56,0l-1.24,0Z"/><path class="cls-1" d="M17.28,51.35c2.24,0,4.49,0,6.73,0,6.36,0,12.72,0,19.07,0,.89,0,1.16.17,1.16,1.12,0,8.61,0,17.21,0,25.81-8.75,0-17.49,0-26.24,0-.61,0-.74-.13-.74-.75C17.29,68.84,17.28,60.09,17.28,51.35Z"/><path class="cls-1" d="M46.94,78.31c0-.41.07-.82.07-1.23,0-8.19,0-16.38,0-24.58,0-.92.25-1.14,1.16-1.14q12.33.06,24.67,0c.91,0,1.16.21,1.16,1.14,0,8.29,0,16.59,0,24.88,0,.31,0,.62,0,.93Z"/><path class="cls-1" d="M282.74,66.7a12.06,12.06,0,0,1-6.1.66,6,6,0,0,1-5.3-5.52,23.44,23.44,0,0,1-.17-2.78c0-3.63,0-7.26,0-10.89,0-.73-.21-.94-.93-.92-2.21,0-4.43,0-6.64,0-.83,0-1,.24-1,1,0,5.84,0,11.68,0,17.52,0,.94-.27,1.17-1.15,1.11a33.81,33.81,0,0,0-3.63,0c-.8,0-1-.17-1-1,0-5.84,0-11.68,0-17.52,0-1-.25-1.25-1.2-1.19s-2,.4-2.6-.13-.18-1.77-.2-2.68c0-1.78,0-1.79,1.8-1.79,2.17,0,2.19,0,2.17-2.23a11.37,11.37,0,0,1,.78-5,7.88,7.88,0,0,1,6.54-4.78,11.91,11.91,0,0,1,4.12.15.82.82,0,0,1,.77,1c0,1.11,0,2.22,0,3.32,0,.58-.06.85-.75.57a5.7,5.7,0,0,0-1.61-.34,3.32,3.32,0,0,0-4,3.18c-.11,1.17,0,2.35-.06,3.53,0,.45.18.59.62.59,2.45,0,4.9,0,7.36,0,.55,0,.59-.3.59-.72,0-1.35,0-2.7,0-4a.8.8,0,0,1,.67-1c1.66-.47,3.3-1,5.11-1.51,0,1.59,0,3.08,0,4.58,0,.85-.38,1.95.19,2.48s1.64.13,2.5.16c1,0,2.07,0,3.11,0V47.2l-5.06.06c-.45,0-.82,0-.81.62,0,4.07,0,8.14.09,12.2.05,1.76,1.16,2.61,2.9,2.72a9,9,0,0,0,2.88-.67Z"/><path class="cls-1" d="M60.52,48.62c-4.18,0-8.36,0-12.54,0-.79,0-1-.24-1-1q0-12.54,0-25.08c0-.66.15-.89.86-.88q12.64,0,25.29,0c.63,0,.82.17.82.81q0,12.65,0,25.29c0,.72-.27.85-.91.85C68.88,48.61,64.7,48.62,60.52,48.62Z"/><path class="cls-1" d="M109.25,58.58c.35-.09.33-.34.39-.52,2.93-8.19,6.5-16.12,9.69-24.21a1.08,1.08,0,0,1,1.2-.83c2.08,0,4.15,0,6.22,0,.63,0,.92.1.92.83q0,16.13,0,32.25c0,.65-.2.83-.83.81-1.38,0-2.76-.06-4.14,0-.77,0-.9-.26-.89-1,.1-8.4-.18-16.8.21-25.19,0-.34,0-.69,0-.88-3.22,8.66-6.94,17.25-10.36,26A1.45,1.45,0,0,1,110,67c-2.7-.06-2.7,0-3.71-2.48q-4.42-10.77-8.86-21.54a29.07,29.07,0,0,1-1.09-3.39c.18,8.74,0,17.48.09,26.22,0,1-.23,1.36-1.25,1.27a21.52,21.52,0,0,0-3.11,0c-.92.07-1.16-.25-1.16-1.16,0-10.13,0-20.26,0-30.39,0-2.38,0-2.38,2.44-2.38,1.69,0,3.39,0,5.08,0a1,1,0,0,1,1.07.7q4.5,11.42,9,22.81C108.82,57.23,109,57.89,109.25,58.58Z"/><path class="cls-1" d="M252.13,54.17c0,4.61-1.22,8.24-4.6,11-4.19,3.37-13.3,3.56-17.44-1.42a12,12,0,0,1-2.66-6,16.39,16.39,0,0,1,.68-8.07c1.59-4.57,5.51-7.32,10.93-7.58,3.89-.18,7.51.54,10.23,3.68A12.51,12.51,0,0,1,252.13,54.17Zm-5.9.48a9.19,9.19,0,0,0-.22-2.57c-.61-3.14-2.77-5.16-5.64-5.3-3.58-.16-5.88,1.42-6.81,4.76a12,12,0,0,0,.07,6.84c.9,2.93,3.2,4.44,6.5,4.38a5.64,5.64,0,0,0,5.71-4.62A11.65,11.65,0,0,0,246.23,54.65Z"/><path class="cls-1" d="M205.7,54.6c0,4.16-1.24,7.8-4.62,10.51-4.18,3.38-13.35,3.6-17.51-1.48a13.42,13.42,0,0,1-2.77-9.51,15.51,15.51,0,0,1,.64-3.87,11.25,11.25,0,0,1,9.79-8,17.06,17.06,0,0,1,6.37.34,10.84,10.84,0,0,1,8,10C205.63,53.22,205.66,53.91,205.7,54.6Zm-5.89,0a11.07,11.07,0,0,0-.25-2.72,6,6,0,0,0-5.28-5.08c-3.24-.32-5.69,1-6.79,3.75a11.33,11.33,0,0,0-.1,8.3c1,2.77,3.44,4.11,6.72,3.89,2.73-.18,4.54-1.76,5.28-4.6A12.91,12.91,0,0,0,199.81,54.6Z"/><path class="cls-1" d="M223.44,48.3a10.14,10.14,0,0,0-6.81-1.55,2.45,2.45,0,0,0-2.29,1.92,2.51,2.51,0,0,0,1.51,2.79c.91.48,1.86.91,2.81,1.31a37,37,0,0,1,3.47,1.83c3.84,2.06,3.37,7.68,1.06,10-2.56,2.56-5.69,3.09-9.07,2.85a19.45,19.45,0,0,1-4.64-1,1,1,0,0,1-.78-1.13c.05-1.51,0-3,0-4.67a17.51,17.51,0,0,0,3.83,1.82,9,9,0,0,0,4.4.3A2.29,2.29,0,0,0,219,61a2.34,2.34,0,0,0-1.12-2.57,25.52,25.52,0,0,0-3.52-1.73,25.15,25.15,0,0,1-2.57-1.35,6.82,6.82,0,0,1-.54-11.25c2.44-1.93,5.27-2.26,8.24-2a14.69,14.69,0,0,1,3.33.73c.33.12.63.21.63.68C223.43,45.07,223.44,46.61,223.44,48.3Z"/><path class="cls-1" d="M162,46c0,.59,0,1.18,0,1.76,0,.27.14.61-.12.77s-.49-.15-.71-.28a8.89,8.89,0,0,0-6-1.35,6.77,6.77,0,0,0-6,5.64A9.4,9.4,0,0,0,150.29,60a7.15,7.15,0,0,0,8.14,2.51,10.77,10.77,0,0,0,2.73-1.22c.21-.13.42-.47.71-.28s.11.51.11.78c0,1.17,0,2.34,0,3.52a1,1,0,0,1-.57,1c-7,4-16.27.16-18.13-7.53-1.29-5.37.14-12.17,6.16-15.21A14.49,14.49,0,0,1,161.31,43a.85.85,0,0,1,.69,1C162,44.66,162,45.35,162,46Z"/><path class="cls-1" d="M172.12,46.43c.2-.35.38-.7.58-1a6.12,6.12,0,0,1,6.45-3.14c.84.12,1.25.45,1.19,1.41-.09,1.47,0,3,0,4.52a10.33,10.33,0,0,0-2.24-.71,4.52,4.52,0,0,0-4.89,2.12A7.86,7.86,0,0,0,172,54c0,4,0,7.94,0,11.91,0,.75-.16,1-1,1-1.35-.07-2.7,0-4,0-.56,0-.79-.13-.78-.75q0-11.39,0-22.79c0-.56.13-.8.74-.79,1.42,0,2.84,0,4.25,0,.69,0,.8.28.78.86,0,1,0,2,0,2.95Z"/><path class="cls-1" d="M133.21,54.66c0-3.73,0-7.46,0-11.18,0-.66.15-.92.85-.89,1.38,0,2.76,0,4.14,0,.59,0,.78.18.78.77q0,11.4,0,22.79c0,.58-.17.78-.76.77-1.38,0-2.77,0-4.15,0-.67,0-.87-.18-.86-.86C133.23,62.26,133.21,58.46,133.21,54.66Z"/><path class="cls-1" d="M136.09,38.9a3.31,3.31,0,0,1-3.4-3.29,3.44,3.44,0,0,1,6.87.06A3.34,3.34,0,0,1,136.09,38.9Z"/></svg>