<svg id="Layer_1" data-name="Layer 1" xmlns="http://www.w3.org/2000/svg" viewBox="0 0 300 100"><defs><style>.cls-1{fill:#bcbcbc;}</style></defs><title>partner2</title><path class="cls-1" d="M154.52,50.62q1.95-5.91,3.89-11.8c1.84-5.63,3.66-11.27,5.54-16.88a1.42,1.42,0,0,1,1.09-.76c7.34-.05,14.68-.11,22,0,5.31.06,9,4.31,8.21,9.18-.44,2.63-2.1,4.54-4.06,6.19a19,19,0,0,1-2.77,1.79c-.73.43-.9.83-.31,1.56,2.37,2.91,3.11,6.39,3.35,10,.05.71,0,1.42.06,2.12.18,1.74.21,1.74-1.59,1.74-3.36,0-6.72-.06-10.08,0-1.27,0-1.43-.46-1.59-1.57-.43-2.87-1-5.73-1.7-8.55a6.43,6.43,0,0,0-1.7-2.76c-1.16-1.16-2.55-.71-3.06.86q-1.65,5-3.23,10.1c-.56,1.79-.65,1.88-2.58,1.88H140.69c0-1.33,0-2.55,0-3.77,0-.87-.34-1.13-1.19-1.12-3.45,0-6.9,0-10.34.05a2.73,2.73,0,0,0-1.76.87c-.91,1-1.62,2.2-2.47,3.28a1.62,1.62,0,0,1-1,.66c-4.63.05-9.27,0-14.11,0a6.26,6.26,0,0,1,.5-.89l25-30.57a2.87,2.87,0,0,1,2.49-1.18c4.19.06,8.39,0,12.77,0C151.83,31,153,40.8,154.25,50.59Zm19.79-16.35a16.42,16.42,0,0,0,2.13,0,6,6,0,0,0,4.89-2.95,2.42,2.42,0,0,0-.49-3.12c-.87-.68-3.69-.86-4.3-.26a1.05,1.05,0,0,0-.27.44C175.63,30.27,175,32.19,174.31,34.27ZM139.91,33l-.26-.13-6.26,8.51h6.93C140.18,38.54,140,35.79,139.91,33Z"/><path class="cls-1" d="M92.08,53.76c2.63-8.1,5.19-16,7.78-24-.55,0-.93-.08-1.32-.08-4.73,0-9.46-.06-14.19,0a27.61,27.61,0,0,0-5.11.66c-.63.13-1.16.79-1.74,1.21a7.05,7.05,0,0,0,1.4,1.56,63.06,63.06,0,0,1,5.64,3.18,11.91,11.91,0,0,1,3.3,3.86c1.63,3.09.64,6.6-2.31,9.14-4.31,3.71-9.44,5-15,5.07A38.36,38.36,0,0,1,59.6,52.67c-1-.29-1.3-.73-1-1.81.61-2.48,1.07-5,1.59-7.5,5,1.14,10,3,15,.29l.15-.53a8.25,8.25,0,0,0-1.57-1.23c-1.08-.5-2.23-.84-3.35-1.24-6.23-2.21-7.4-7.8-4.44-12.83a12.85,12.85,0,0,1,7.61-5.64,20.43,20.43,0,0,1,5.84-1c15.7-.08,31.39-.05,47.09-.05h1.58c-.82,2.37-1.67,4.5-2.28,6.7a2.19,2.19,0,0,1-2.67,1.9c-2.43-.16-4.87,0-7.3-.07A1.58,1.58,0,0,0,114,31c-2.28,7.16-4.65,14.29-6.94,21.44a1.58,1.58,0,0,1-1.84,1.35c-3.85-.07-7.7,0-11.54,0Z"/><path class="cls-1" d="M192.07,53.76c.61-1.93,1.13-3.6,1.68-5.27,2.84-8.7,5.71-17.38,8.52-26.09A1.52,1.52,0,0,1,204,21.12c3.85.06,7.69,0,11.54,0h1.49c-1.49,4.6-2.91,9-4.42,13.69.51-.33.79-.48,1-.68,4.75-3.89,9.52-7.76,14.24-11.7a5.29,5.29,0,0,1,3.72-1.34c3.83.08,7.67,0,11.51,0l.16.32c-1.12.94-2.23,1.89-3.36,2.81-4.93,4-9.84,8.08-14.81,12.05a1.36,1.36,0,0,0-.4,2.07c2.59,4.84,5.12,9.7,7.66,14.55.1.19.17.39.36.82h-1.54c-4.38,0-8.76,0-13.13,0a2.2,2.2,0,0,1-2.33-1.44c-1.57-3.12-3.21-6.2-4.83-9.29-.15-.3-.33-.58-.61-1-1,3.09-2,6-2.9,8.87s-.93,2.87-3.92,2.87Z"/><path class="cls-1" d="M152.08,67.86a8,8,0,0,1-9.37,2.78c-1.43-.63-2-1.8-2-3.68-3.16,5.5-8.21,3.85-13,4.18.58-1.79,1.09-3.4,1.61-5,.44-1.34.94-2.67,1.3-4a1.23,1.23,0,0,1,1.5-1.05c1.45.06,2.92,0,4.37,0,3.09,0,4.46,1.33,4.61,4.75.5-1.5.93-2.65,1.26-3.82a1.1,1.1,0,0,1,1.32-.94c1.09.06,2.19,0,3.5,0-.53,1.66-1,3.16-1.49,4.66-.25.82-.76,1.91.33,2.32s1.76-.54,2.12-1.51c.57-1.53,1.05-3.09,1.63-4.62.13-.33.51-.78.81-.8,1.26-.09,2.53,0,3.93,0L154,63a6.91,6.91,0,0,1,5.5-1.94c6.41,0,12.82,0,19.23,0,2.18,0,3.26.5,3.58,1.79.43,1.67-.59,2.64-1.83,3.46-.07,0-.13.12-.2.18l1.07,2.9c.21-.54.4-1,.54-1.37.67-2,1.3-4,2-6,.13-.35.48-.85.76-.88,1.26-.09,2.53,0,4,0-.54,1.69-1,3.19-1.5,4.69s-1,3-1.53,4.51c-.13.34-.54.8-.83.8-2.51.07-5,0-7.56,0-.38-1.44-.14-3-1.58-4.3l-1.49,4.26h-4.45l2.32-7.2a16.77,16.77,0,0,0-2.68,0c-.34.06-.72.57-.86,1-.72,2-1.37,4.1-2.06,6.18h-4.5l2.25-7h-6.35l-.07.41c.56.3,1.12.6,1.67.92,2,1.15,2.22,3.06.43,4.5-2.15,1.73-5.33,1.68-7.57.81-.22-.09-.37-.62-.38-1a18.24,18.24,0,0,1,.13-2c1.54.11,3.08.88,4.92,0a12.44,12.44,0,0,1-2.19-1.07A10.63,10.63,0,0,1,153.28,65ZM133.26,68c1.83.25,3.61-1.15,3.46-2.78a1.9,1.9,0,0,0-1-1.22c-.6-.29-1.17-.08-1.39.73C134,65.86,133.62,66.93,133.26,68Zm42.87-3.31.5.48,1.47-1.32-.78-.71Z"/><path class="cls-1" d="M196,78.44l26.3-19.72,0-.31H56.8l-.11-.58a5.65,5.65,0,0,1,1.23-.34q17.1-.24,34.22-.44l73-.83,50.14-.6,18-.22c.25,0,.5,0,.76.05l.16.34-37.85,23.1Z"/><path class="cls-1" d="M201.29,64.39c.39.22.77.48,1.18.66,1,.43,2,.87,2.14,2.11A2.7,2.7,0,0,1,203,69.87,9.07,9.07,0,0,1,199.43,71c-4.37.14-8.75,0-13.13,0a2.39,2.39,0,0,1-.48-.14c1-3.12,2-6.22,3-9.31a.94.94,0,0,1,.64-.55c2.67,0,5.35,0,8.13,0l-.36,1.85c2.66-2.23,5.44-2.34,8.51-1.17l-.84,2.52-3.44-.49ZM191.1,68c2.39.63,8,.38,8.89-.39-1.74-.74-3.24-1.68-3.29-3.79-3.93,0-3.93,0-4.17,1.06h3.39c-.58,2.44-.58,2.44-2.85,2.45a3.68,3.68,0,0,0-1,0A3.86,3.86,0,0,0,191.1,68Z"/><path class="cls-1" d="M114.22,71.1c1.1-3.34,2.1-6.44,3.15-9.52.07-.23.42-.37.67-.51.1-.06.26,0,.39,0,2.1-.32,3.78.14,4.66,2.33a9.93,9.93,0,0,0,1.29,1.77,33,33,0,0,1,1.15-3.27,1.6,1.6,0,0,1,1.1-.79c1.13-.1,2.28,0,3.62,0-.58,1.78-1.11,3.4-1.63,5-.21.63-.4,1.26-.61,1.89-1,3.17-1.06,3.14-4.37,3.15a1.72,1.72,0,0,1-1.7-1c-.53-.94-1.14-1.85-1.89-3-.42,1.25-.67,2.22-1.07,3.13a1.46,1.46,0,0,1-.94.82C116.86,71.17,115.66,71.1,114.22,71.1Z"/><path class="cls-1" d="M109.31,71.11c1.09-3.31,2.09-6.4,3.14-9.47a1.15,1.15,0,0,1,.85-.56c1.19-.06,2.37,0,3.75,0-.36,1.2-.68,2.27-1,3.33-.64,2-1.25,4-2,5.89a1.58,1.58,0,0,1-1.07.79C111.86,71.17,110.72,71.11,109.31,71.11Z"/></svg>