<svg id="Layer_1" data-name="Layer 1" xmlns="http://www.w3.org/2000/svg" viewBox="0 0 300 100"><defs><style>.cls-1{fill:#bcbcbc;}</style></defs><title>partner3</title><path class="cls-1" d="M73.25,28.47c0,2.09,0,4.17,0,6.26a.9.9,0,0,1-.46.84,19,19,0,0,0-1.68,1.27A2.68,2.68,0,0,0,70.18,39c0,6.74,0,13.48,0,20.22,0,.38-.13.51-.46.64-1.78.7-3.58,1.38-5.32,2.17-2.8,1.28-5.6,2.57-8.33,4-2.5,1.29-4.91,2.75-7.34,4.14-.74.43-1.45.89-2.19,1.32a.55.55,0,0,1-.43,0l-3.24-1.88c-1.47-.82-2.94-1.65-4.44-2.44-2-1-3.94-2.06-6-3C30.17,63,27.82,62,25.47,61c-1-.43-1.92-.83-2.9-1.25v-.44q0-10.23,0-20.45a2.74,2.74,0,0,0-1.14-2.16c-.56-.47-1.2-.85-1.78-1.3a.67.67,0,0,1-.21-.47q0-3.2,0-6.41H37.91v2.44c-1.28,0-2.5,0-3.72,0a1.79,1.79,0,0,0-1.78,1.8c0,3.95,0,7.91,0,11.86,0,4.48,0,9,0,13.44a.72.72,0,0,0,.2.51,13.82,13.82,0,0,0,2.18,1.23,8.3,8.3,0,0,0,6.14.16,2,2,0,0,0,1.41-2c-.05-1.12,0-2.25.06-3.38,0-1.78.05-3.56.08-5.33s0-3.3.08-5c0-1.89,0-3.79.07-5.68,0-2.89,0-5.79.08-8.69a2,2,0,0,1,0-.24h7.19c0,.35.09.69.1,1,0,1.72.06,3.43.08,5.14s.05,3.43.08,5.14,0,3.43.07,5.14c0,2.82,0,5.64.08,8.46,0,1.28,0,2.56.08,3.85a1.23,1.23,0,0,0,0,.25A2.14,2.14,0,0,0,52,60a7.82,7.82,0,0,0,3.81.31A8.69,8.69,0,0,0,60,58.67a.87.87,0,0,0,.4-.8q0-12.49,0-25a2.25,2.25,0,0,0,0-.26,1.74,1.74,0,0,0-1.73-1.69c-1.14,0-2.29,0-3.43,0-.32,0-.39-.1-.39-.39,0-.69,0-1.37,0-2.06Z"/><path class="cls-1" d="M91.75,33c3.17,0,6.33,0,9.5,0a.63.63,0,0,1,.47.32c1.07,2.8,2.12,5.62,3.18,8.43l.29.77c.37-.65.71-1.21,1-1.79,1.35-2.47,2.69-4.94,4.06-7.4a.79.79,0,0,1,.6-.33c3,0,6,0,9.05,0a.69.69,0,0,1,.69.42c.47.85.92,1.72,1.39,2.57,1.16,2.11,2.34,4.22,3.5,6.33l.16.22,3.58-9.5h9.81l-1.38,3.16Q136,40.09,134.25,44c-.82,1.88-1.65,3.77-2.49,5.65a.61.61,0,0,1-.46.27c-3.16,0-6.33,0-9.5,0a.7.7,0,0,1-.5-.3c-.73-1.26-1.43-2.54-2.14-3.81l-3.73-6.72c-.49.86-1,1.67-1.4,2.48-1.47,2.67-2.93,5.36-4.42,8a.77.77,0,0,1-.56.32q-4.72,0-9.44,0a.61.61,0,0,1-.47-.32c-1.14-2.52-2.25-5-3.36-7.56l-2.85-6.39c-.39-.87-.79-1.73-1.18-2.59Z"/><path class="cls-1" d="M212.68,33h2c2.33,0,4.65,0,7,0a2.06,2.06,0,0,1,1.31.45c3.27,2.43,6.55,4.84,9.83,7.26l1.86,1.39a5.81,5.81,0,0,0,.53.33V33H245V50h-.45c-3,0-6,0-8.94,0a2.46,2.46,0,0,1-1.25-.6c-4-2.91-7.91-5.84-12-8.84V50h-9.72Z"/><path class="cls-1" d="M280.56,46.14v3.79H252.15V33h27.93v3.45H262.5v2.8h16.35v3.38H262.51v3.5Z"/><path class="cls-1" d="M176.06,50c-3.18,0-6.31,0-9.43,0a1.82,1.82,0,0,1-2-1.17,3.34,3.34,0,0,0-1.12-1.65,4.25,4.25,0,0,0-2-.12c-3.11,0-6.22,0-9.33,0a.88.88,0,0,0-.89.49c-.4.7-.79,1.41-1.23,2.09a.76.76,0,0,1-.54.33c-3.35,0-6.71,0-10.19,0,.32-.46.57-.85.86-1.23q4.59-6.12,9.19-12.25c.8-1.06,1.57-2.14,2.38-3.19a.82.82,0,0,1,.58-.31q5.4,0,10.8,0a.72.72,0,0,1,.49.24l9.26,12.34q1.51,2,3,4A2.13,2.13,0,0,1,176.06,50Zm-14.68-6.54-3.8-6.21-3.77,6.21Z"/><path class="cls-1" d="M190.62,38.71c1.46-1.2,2.84-2.35,4.22-3.5.78-.66,1.55-1.33,2.33-2a1,1,0,0,1,.53-.24c3.67,0,7.34,0,11.18,0-1,.78-2,1.46-2.92,2.16l-6.55,5c-1.1.83-2.18,1.69-3.31,2.49a.7.7,0,0,0-.33.68c0,2,0,4,0,6v.64H185.43v-.61c0-2,0-4,0-6.07a.9.9,0,0,0-.3-.62c-4.22-3.2-8.44-6.38-12.75-9.62l.67,0c3.15,0,6.3.05,9.44,0A3.52,3.52,0,0,1,185,34c1.56,1.36,3.17,2.67,4.76,4Z"/><path class="cls-1" d="M125.92,56.52h1.45V65c-.67,0-1.36,0-2,0-.15,0-.32-.17-.44-.3-1.56-1.82-3.11-3.64-4.68-5.45-.49-.57-1-1.12-1.57-1.75V65h-1.56V56.5a9.72,9.72,0,0,1,2.16,0c.39.09.7.61,1,1,.82,1,1.63,1.92,2.45,2.88,1,1.12,1.91,2.22,2.87,3.33l.35.32Z"/><path class="cls-1" d="M177.18,61.13a3,3,0,0,1,.89.35,2,2,0,0,1,.69,1,21.4,21.4,0,0,1,0,2.54h-1.46V63.08a1.25,1.25,0,0,0-1.23-1.41c-.11,0-.23,0-.34,0h-4.6V65h-1.55V56.49h1.78c1.33,0,2.67,0,4,0a9.32,9.32,0,0,1,2,.25c1.49.35,1.77,1.55,1.61,2.78A1.68,1.68,0,0,1,177.18,61.13Zm-6-.48h4.56c1.11,0,1.8-.32,1.74-1.7-.05-1-.4-1.44-1.49-1.44h-4.27l-.54,0Z"/><path class="cls-1" d="M213.1,65c0-.6,0-1.18,0-1.75-.08-1.29-.38-1.53-1.57-1.58-1.51-.06-3,0-4.6,0V65h-1.55V56.49h.89c1.61,0,3.22,0,4.83,0a9.85,9.85,0,0,1,2.23.33,1.94,1.94,0,0,1,1.41,2.3c0,.26,0,.52-.09.77-.21.87-.89,1.13-1.72,1.23a1.38,1.38,0,0,0,.29.13c1.13.22,1.39.74,1.35,1.91,0,.6,0,1.2,0,1.83Zm-6.17-4.36c1.67,0,3.27,0,4.88,0,1.11,0,1.46-.55,1.4-1.9,0-.88-.48-1.23-1.52-1.23h-4.76Z"/><path class="cls-1" d="M276.61,59h-1.47c0-.05-.07-.08-.06-.11.11-1-.37-1.43-1.53-1.44-.94,0-1.88,0-2.81,0-1.25.05-1.79.64-1.42,2a.94.94,0,0,0,1,.65c1.08,0,2.16,0,3.24.13a10.61,10.61,0,0,1,2.16.37,1.94,1.94,0,0,1,1.13,2.32c-.26,1.59-1,2.12-2.63,2.14-.88,0-1.75.11-2.62.09a20.64,20.64,0,0,1-2.21-.21,2.06,2.06,0,0,1-1.68-2.56h1.39c0,.13,0,.24,0,.35.1,1.07.48,1.42,1.57,1.42h3.09a1.52,1.52,0,0,0,1.46-2.26c-.29-.7-1-.59-1.47-.64-1.17-.11-2.35-.08-3.52-.15a4.38,4.38,0,0,1-1.34-.27,1.64,1.64,0,0,1-1.14-1.71,6,6,0,0,1,.11-1.21c.29-1,1.2-1.28,2.11-1.39a20.71,20.71,0,0,1,2.73-.12,13.45,13.45,0,0,1,2.2.23C276.2,56.86,276.69,57.56,276.61,59Z"/><path class="cls-1" d="M242.64,59h-1.4c0-.09,0-.16,0-.22,0-.86-.23-1.23-1.05-1.28a26.74,26.74,0,0,0-3.9.08,1.12,1.12,0,0,0-1,1.33c.14.93.44,1.2,1.3,1.24,1.43.06,2.86.1,4.28.23a1.93,1.93,0,0,1,1.91,1.18,2.74,2.74,0,0,1-.35,2.79,3,3,0,0,1-1.67.71,15.19,15.19,0,0,1-3.23.11,5.94,5.94,0,0,1-2.76-.43,1.81,1.81,0,0,1-1-1.46c0-.27-.08-.55-.12-.85h1.56c0,.14,0,.29,0,.43,0,1,.43,1.29,1.31,1.32,1.1,0,2.21,0,3.31,0a1.55,1.55,0,0,0,1.37-2.39c-.3-.52-.89-.48-1.38-.52-1.2-.08-2.42,0-3.63-.14-1.4-.11-2.3-.65-2.42-1.74-.19-1.83.48-2.58,2.28-2.84a15.75,15.75,0,0,1,2.57-.12,18.74,18.74,0,0,1,2.48.23C242.21,56.78,242.74,57.63,242.64,59Z"/><path class="cls-1" d="M108.37,64v1h-7.92V56.53h7.92v1H102v2.7h6v.91h-6V64Z"/><path class="cls-1" d="M160.55,61.1h-6V64h6.35v1H153V56.53h7.91v.95h-6.34V60.2h6Z"/><path class="cls-1" d="M189.36,61.67V65h-1.52V56.52c.16,0,.34,0,.52,0,1.68,0,3.37,0,5,0a12.45,12.45,0,0,1,1.72.13A2.41,2.41,0,0,1,197,59.72a2.14,2.14,0,0,1-2.49,2Zm0-4.16v3.26H194c1-.08,1.4-.48,1.4-1.51v-.62a1,1,0,0,0-1-1.12C192.76,57.49,191.1,57.51,189.41,57.51Z"/><path class="cls-1" d="M253.05,57.5v2.69h6.13v.9h-6.13V64h6.34v1h-7.8V56.54h7.8v1Z"/><path class="cls-1" d="M141,65h-1.58V57.53h-3.92v-1h9.27v1H141Z"/><path class="cls-1" d="M223.58,65V56.53h1.51V65Z"/></svg>