<svg id="Layer_1" data-name="Layer 1" xmlns="http://www.w3.org/2000/svg" viewBox="0 0 300 100"><defs><style>.cls-1{fill:#bcbcbc;}</style></defs><title>partner4</title><path class="cls-1" d="M48.23,41.33l-.8.42a3.06,3.06,0,0,1,.16-.76,33.16,33.16,0,0,1,9-10.9,13.3,13.3,0,0,1,5.8-2.56,12.75,12.75,0,0,0,2.47-.93s0,0,.07-.05c1.19-.06,2.07-.94,3.16-1.22a15.5,15.5,0,0,1,3.39-.49c1.88-.06,3.77,0,5.65.07.63,0,1.24.27,1.87.36a16.78,16.78,0,0,1,6.17,2.12A10.62,10.62,0,0,1,88,30.17,29.94,29.94,0,0,1,94.69,44.8a24,24,0,0,1-2.33,14.87,30.32,30.32,0,0,1-9.63,11.22,12,12,0,0,1-2.26,1c-.63.28-1.26.57-1.86.89a12.55,12.55,0,0,1-5.94,1.86V73c-.68.44-1.19.8-1.73,1.13s-1.11.56-1.62-.16c-1,1.77-2.68,1.37-4.14,1.24a23.79,23.79,0,0,1-9.05-2.63c-6.2-3.27-10.1-8.25-11-15.33a27.5,27.5,0,0,1,.94-12.09A12.69,12.69,0,0,1,47,43.21a.89.89,0,0,1,.49-.43C48.3,42.59,48.16,41.93,48.23,41.33ZM88,54.22c-.17-1.36-.24-2.74-.54-4.08a27,27,0,0,0-7-12.61,12.82,12.82,0,0,0-8.58-4.4,24.46,24.46,0,0,0-5.41,0,9.83,9.83,0,0,0-5.55,3,2.07,2.07,0,0,1-1.3.66,3.75,3.75,0,0,0-3.34,2.41,24.94,24.94,0,0,0-2.66,8.57,20.18,20.18,0,0,0,.76,7.49c1.23,4.83,3.88,8.56,8.47,10.74a21.64,21.64,0,0,0,9,2c1.78,0,3.59.42,5.38-.11a7.43,7.43,0,0,1,1.64,0,1.2,1.2,0,0,0,.62-.2c1.55-1.2,3.1-2.41,4.62-3.64a5.5,5.5,0,0,0,1.08-1.18A15.92,15.92,0,0,0,88,54.22Z"/><path class="cls-1" d="M189.3,71c-3.49,0-6.81,0-10.13,0-.47,0-.55-.27-.62-.61-.12-.67-.23-1.34-.37-2.12-.25.18-.44.29-.61.43a12.64,12.64,0,0,1-9,3,17.06,17.06,0,0,1-4.21-.61,7.14,7.14,0,0,1-5.08-6.82c-.08-3.5,1.61-6.31,4.77-7.33a52.83,52.83,0,0,1,6.63-1.43c1.83-.33,3.69-.49,5.52-.82a2,2,0,0,0,1.86-2,2.06,2.06,0,0,0-1.9-2.07,15.09,15.09,0,0,0-3.49,0A2.42,2.42,0,0,0,170.63,53h-9.78c0-3.81,2-6.26,6-7.58a27.25,27.25,0,0,1,9.07-1.09,21,21,0,0,1,6.55,1c2.57.9,4.6,2.43,5.12,5.27a22.68,22.68,0,0,1,.27,4c0,4.24,0,8.49,0,12.73A3.74,3.74,0,0,0,189,70.4C189.15,70.5,189.18,70.69,189.3,71ZM177.88,59.6l-3,.85c-1.27.35-2.57.62-3.81,1.07a2,2,0,0,0-1.21,2.19,1.93,1.93,0,0,0,1.47,1.93,7.26,7.26,0,0,0,2.17.27,4.31,4.31,0,0,0,4.37-3.72A20.23,20.23,0,0,0,177.88,59.6Z"/><path class="cls-1" d="M200.46,45.27v3.89c.58-.65,1-1.14,1.45-1.61a11.3,11.3,0,0,1,13.65-1.41,8.1,8.1,0,0,1,3.55,6.65c.18,6,.13,11.91.18,17.86a1.29,1.29,0,0,1-.06.26H209.06c0-.33-.05-.65-.05-1q0-6.52,0-13a7.92,7.92,0,0,0-.19-1.82,3.22,3.22,0,0,0-3.21-2.66A3.52,3.52,0,0,0,202,54.27a6.9,6.9,0,0,0-.64,2.71c-.07,4.34,0,8.69,0,13v.89H191.16V45.27Z"/><path class="cls-1" d="M138.81,60.33a4.57,4.57,0,0,0,4.39,5c1.75.1,3.31-.18,4.35-1.8a.7.7,0,0,1,.52-.25c3,0,6.08,0,9.13,0a.73.73,0,0,1,.22.09A8.42,8.42,0,0,1,154.53,68a14.64,14.64,0,0,1-8.23,3.54,19.6,19.6,0,0,1-9.58-.94,12.07,12.07,0,0,1-8.08-10.59,13.48,13.48,0,0,1,12.27-15.46,18.27,18.27,0,0,1,7.78.71c5.19,1.69,8.07,5.43,9.21,10.62.3,1.4.32,2.87.49,4.41Zm9.32-5.17a4.19,4.19,0,0,0-2-3.84,4.93,4.93,0,0,0-5.29,0,4.55,4.55,0,0,0-2.05,3.89Z"/><path class="cls-1" d="M126.58,61.09c-.58,6.54-5.73,9.49-10.28,10.31a18.73,18.73,0,0,1-11.12-1,12.22,12.22,0,0,1-7.55-10.6,14.87,14.87,0,0,1,.94-7.21,12,12,0,0,1,7.07-6.92,19.28,19.28,0,0,1,13.49-.11,10.53,10.53,0,0,1,7.29,9.31H116.17c0-.13-.08-.27-.11-.41a3.61,3.61,0,0,0-3.12-3.12,4.15,4.15,0,0,0-4.3,2.18,10.15,10.15,0,0,0-.81,5,14.61,14.61,0,0,0,.39,3c.74,3,3.52,3.71,5.82,2.92a3.4,3.4,0,0,0,2.18-2.83c.07-.36.14-.62.6-.62,3.17,0,6.34,0,9.51,0A1.22,1.22,0,0,1,126.58,61.09Z"/><path class="cls-1" d="M264.55,54.84c-.27,0-.47,0-.67,0H255c-.45,0-.71-.1-.8-.59a3.44,3.44,0,0,0-3-3,4,4,0,0,0-4.24,2,9.59,9.59,0,0,0-.87,3,13.32,13.32,0,0,0,.36,5.47c.8,2.79,3.56,3.51,5.84,2.67a3.39,3.39,0,0,0,2-2.43c.09-.3.15-.6.23-.94h10.18a9.93,9.93,0,0,1-1,4,11.34,11.34,0,0,1-7.6,6,18.37,18.37,0,0,1-13.64-1,11.89,11.89,0,0,1-6.55-9.42,14.55,14.55,0,0,1,1.22-8.81,12.73,12.73,0,0,1,9.71-6.94A20,20,0,0,1,257,45.4a10.71,10.71,0,0,1,7.57,8.9A4.79,4.79,0,0,1,264.55,54.84Z"/><path class="cls-1" d="M232.92,45.27V70.92H222.77V45.27Z"/><path class="cls-1" d="M222.77,34.52H233v7.23H222.77Z"/><path class="cls-1" d="M211.42,80.54c0-1.12,0-2.24,0-3.36,0-.68.17-1,.91-.93,1.73,0,1.73,0,1.73,1.76,0,1.94,0,3.88,0,5.82,0,.57-.21.69-.75.76a2.56,2.56,0,0,1-2.9-1.51,29.66,29.66,0,0,0-1.85-2.77l-.23,0a6.83,6.83,0,0,0-.09.76c0,.94,0,1.89,0,2.83,0,.47-.18.64-.64.63-2.26,0-1.84.29-1.86-1.76s0-3.83,0-5.75c0-.59.17-.76.78-.82a2.38,2.38,0,0,1,2.66,1.37,31.11,31.11,0,0,0,2,3Z"/><path class="cls-1" d="M147.93,80.78c1.87.71,1.12,2.41,1.46,3.75-.21,0-.44,0-.66,0-.61,0-1.4.17-1.77-.14s-.23-1.11-.31-1.7a1.08,1.08,0,0,0-1.16-1.07c-1.89,0-1.55-.16-1.58,1.42s.21,1.48-1.53,1.49c-1.09,0-1.09,0-1.09-1.07,0-2.15,0-4.3,0-6.44,0-.61.19-.82.79-.79,1.61.07,3.22.08,4.82.16A2.23,2.23,0,0,1,149.12,78c.33,1.09.06,1.74-1.05,2.59C148,80.57,148,80.62,147.93,80.78Zm-3.05-.85c.48,0,.79.1,1,0,.34-.2.76-.49.85-.82.13-.5-.28-.84-.79-.93a8,8,0,0,0-1,0c-1,0-1,0-1,1S144.54,79.91,144.88,79.93Z"/><path class="cls-1" d="M230,80.36c0-1.13,0-2.25,0-3.38,0-.51.15-.73.7-.72,1.84,0,3.68,0,5.52,0,.85,0,.7.5.73,1s-.06.93-.77.88c-.89,0-1.79,0-2.68,0-.47,0-1-.13-1,.66s.54.7,1,.71,1.28,0,1.92,0,.91.14.9.84-.17.93-.87.88-1.48,0-2.22,0c-.57,0-.77.19-.76.75s.13.81.73.79c1.05,0,2.1,0,3.15,0,.76,0,.73.4.72.92s.1,1-.69,1c-1.89,0-3.79,0-5.68,0-.59,0-.74-.22-.73-.77C230,82.66,230,81.51,230,80.36Z"/><path class="cls-1" d="M252.24,82.1c.82,0,1.53,0,2.24,0,.19,0,.38.21.54.35a1.67,1.67,0,0,0,1.89.39c.22-.09.49-.37.49-.57a.79.79,0,0,0-.44-.61,16.12,16.12,0,0,0-1.68-.48c-.47-.14-.93-.28-1.38-.45a2.06,2.06,0,0,1-1.49-1.94,2.32,2.32,0,0,1,1.36-2.23,5.33,5.33,0,0,1,4.87.12,2.1,2.1,0,0,1,1.07,1.84c-.95-.11-1.95.47-2.77-.46a.84.84,0,0,0-.47-.23c-.53,0-1.21-.19-1.39.46s.48.77,1,.9c.74.19,1.49.35,2.21.59A2.37,2.37,0,0,1,260.08,82a2.55,2.55,0,0,1-1.82,2.4,6.08,6.08,0,0,1-4.06,0A2.83,2.83,0,0,1,252.24,82.1Z"/><path class="cls-1" d="M98.54,84.56c.29-.79.55-1.48.81-2.16.69-1.84,1.39-3.68,2.06-5.52a.81.81,0,0,1,.91-.62c2.57.09,1.88-.48,2.82,1.93.81,2.06,1.56,4.15,2.4,6.37-.86,0-1.61,0-2.36,0-.16,0-.37-.3-.44-.51a.69.69,0,0,0-.79-.54c-.46,0-.92,0-1.38,0-.62,0-1.27-.11-1.38.79,0,.1-.26.26-.4.26C100.08,84.57,99.37,84.56,98.54,84.56ZM102,81.88h2.11l-1-3-.25,0Z"/><path class="cls-1" d="M164.92,80.35c0-1.15,0-2.3,0-3.45,0-.46.14-.65.61-.64,2.67.07,2.11-.41,2.17,2.08,0,1.1.05,2.21,0,3.3-.05.77.24,1,1,.93s1.58,0,2.37,0c.5,0,.72.16.68.66a5,5,0,0,0,0,.77c0,.43-.17.59-.59.59-1.84,0-3.68,0-5.52,0-.52,0-.66-.22-.66-.69C164.93,82.7,164.92,81.53,164.92,80.35Z"/><path class="cls-1" d="M75.31,16.61c.25-.15.58-.24.73-.46a1.82,1.82,0,0,1,2.38-.74,3.3,3.3,0,0,1,2.22,3.45,2.56,2.56,0,0,1-2.59,2,3,3,0,0,1-2.87-1.52,3.08,3.08,0,0,1,0-2.86Z"/><path class="cls-1" d="M74,79.1c.26-.18.6-.31.75-.56a1.71,1.71,0,0,1,1.62-.83c1.42.07,3.43,1.87,2.91,3.79-.37,1.34-1.4,1.66-2.51,1.82A2.73,2.73,0,0,1,73.91,82a2.9,2.9,0,0,1-.12-3Z"/><path class="cls-1" d="M35.72,49.6c.24-.16.57-.26.73-.49a1.78,1.78,0,0,1,2.31-.71,7.06,7.06,0,0,1,1.77,1.4,2.39,2.39,0,0,1-1.33,3.87c-1.91.32-3.44-.25-3.85-2a9.77,9.77,0,0,1,0-2.23Z"/><path class="cls-1" d="M36.82,60.82a2.91,2.91,0,0,0,.76-.57,1.82,1.82,0,0,1,2.27-.69,3.32,3.32,0,0,1,2.31,3c0,1.31-.45,1.87-1.92,2.32a2.79,2.79,0,0,1-3.79-2,8.63,8.63,0,0,1,0-2.21Z"/><path class="cls-1" d="M84.37,74.33a3.46,3.46,0,0,0,.79-.61A1.9,1.9,0,0,1,87.32,73a3.42,3.42,0,0,1,2.41,2.81c.13,1.34-.45,2-2,2.52a2.8,2.8,0,0,1-3.75-2,9.1,9.1,0,0,1,0-2.21Z"/><path class="cls-1" d="M40.46,37a3.2,3.2,0,0,1,2.95,4.13c-.3.78-.94,1-1.7,1.3a2.85,2.85,0,0,1-2.46-.22,2.94,2.94,0,0,1-1.33-3.54c0-.08,0-.2.08-.21,1-.1,1.18-1.23,2.06-1.42A2.85,2.85,0,0,1,40.46,37Z"/><path class="cls-1" d="M86.69,20.13a3.2,3.2,0,0,0,.74-.56A1.75,1.75,0,0,1,89.77,19a6.17,6.17,0,0,1,1.77,1.51,2.26,2.26,0,0,1-1.42,3.68,3.78,3.78,0,0,1-1.62.15,2.91,2.91,0,0,1-2-4.28Z"/><path class="cls-1" d="M51.27,77.43a3.22,3.22,0,0,0,.76-.59,1.85,1.85,0,0,1,2-.75,3.7,3.7,0,0,1,2.57,2.58c.33,2.44-1.78,3.29-3.6,2.86s-2.72-2.31-1.9-4.2Z"/><path class="cls-1" d="M62.57,80.28c.25-.13.63-.2.72-.4A1.67,1.67,0,0,1,64.93,79c1.35,0,3.35,1.8,3,3.68s-3.53,2.47-4.82,1.23A2.72,2.72,0,0,1,62.57,80.28Z"/><path class="cls-1" d="M98.32,39.93c.24-.12.6-.18.71-.37a1.68,1.68,0,0,1,1.79-.9,3.21,3.21,0,0,1,2.62,4.16c-.34.82-1,1-1.81,1.28a2.75,2.75,0,0,1-2.4-.27A2.72,2.72,0,0,1,98.32,39.93Z"/><path class="cls-1" d="M91.9,66.19c.25-.18.49-.37.75-.53.43-.27.85-.7,1.32-.75a3.27,3.27,0,0,1,3.23,3.46c-.34,1.63-1.36,2-3.06,2.07A2.76,2.76,0,0,1,91.42,68a14,14,0,0,1,.12-1.94Z"/><path class="cls-1" d="M125.64,80.51c0,1.13,0,2.25,0,3.37,0,.61-.15.85-.81.85-2.12,0-2.12,0-2.12-2.12,0-1.84,0-3.68,0-5.51,0-.61.14-.85.8-.85,2.13,0,2.13,0,2.13,2.12Z"/><path class="cls-1" d="M63.48,17.69l.77-.5a4.1,4.1,0,0,1,1.31-.79c1.6-.28,3.57,1.87,3.26,3.45S67.23,22,65.61,21.93A2.81,2.81,0,0,1,63,19a9.51,9.51,0,0,1,.28-1.47Z"/><path class="cls-1" d="M42.14,70.8l.78-.48c.45-.28.87-.75,1.35-.81,1.68-.25,3.58,1.92,3.21,3.53S46,75,44.37,75a2.75,2.75,0,0,1-2.67-2.48,14,14,0,0,1,.17-1.93Z"/><path class="cls-1" d="M187,80.48c0-1.18,0-2.35,0-3.52,0-.55.17-.73.7-.7s1.13,0,1.68,0a.8.8,0,0,1,.53.53q0,3.68,0,7.35c0,.18-.33.5-.53.52-.58.07-1.17,0-1.76,0s-.62-.2-.62-.65C187,82.87,187,81.68,187,80.48Z"/><path class="cls-1" d="M44.22,28.74c.23-.14.53-.23.67-.43a1.86,1.86,0,0,1,2.27-.79,3.85,3.85,0,0,1,2.19,2,2.25,2.25,0,0,1-1.72,3.2,4.3,4.3,0,0,1-1.77.14A2.92,2.92,0,0,1,44,28.59Z"/><path class="cls-1" d="M58.29,23.48c0,1.31-.45,1.83-1.9,2.23-2,.54-3.44-.26-3.86-2.19a5.38,5.38,0,0,1,.17-1.71s0-.06,0-.06c1,0,1.18-1.23,2.13-1.38A3.27,3.27,0,0,1,58.29,23.48Z"/><path class="cls-1" d="M99.57,30.84c.13,2-2,2.77-3.63,2.39a2.91,2.91,0,0,1-2-3.84c0-.14.18-.38.21-.37.76.18.85-.59,1.27-.86a2.49,2.49,0,0,1,1-.39A3.22,3.22,0,0,1,99.57,30.84Z"/><path class="cls-1" d="M66.39,46.72l-.31,1a1.3,1.3,0,0,0,1.5-1c.36-1.07,2.06-1.8,3.35-1.68A7.25,7.25,0,0,1,77,51.34,5.16,5.16,0,0,1,74.07,56c-.33.12-.84-.11-1.09.06-1.25.88-2.52.57-3.79.16a5.93,5.93,0,0,1-3.33-2.55C64.5,51.51,64.86,48.15,66.39,46.72Z"/></svg>