<svg id="Layer_1" data-name="Layer 1" xmlns="http://www.w3.org/2000/svg" viewBox="0 0 100 100"><defs><style>.cls-1{fill:#4c4c4c;}.cls-2{fill:#b00739;}</style></defs><title>personal-service</title><path class="cls-1" d="M54.1,57.25a1.12,1.12,0,1,0-1.57-1.6L50,58.12l-2.53-2.47a1.12,1.12,0,0,0-1.58,1.6l1.24,1.21L44,74.17a1.16,1.16,0,0,0,.3,1l4.93,5h0a1.82,1.82,0,0,0,.23.15.85.85,0,0,0,.14.09,1.14,1.14,0,0,0,.84,0,.85.85,0,0,0,.14-.09,1.82,1.82,0,0,0,.23-.15h0l4.93-5a1.16,1.16,0,0,0,.3-1L52.87,58.46ZM53.71,74,50,77.77,46.29,74l2.76-13.69.16.16a1.14,1.14,0,0,0,1.58,0l.16-.16Z"/><path class="cls-2" d="M71.52,59.08a9.66,9.66,0,0,0-3.31-5.53A7.93,7.93,0,0,0,65,51.84l-7.52-2.21a.45.45,0,0,1-.21-.34L57,47a13.78,13.78,0,0,0,4-6.35,4.53,4.53,0,0,0,2.56-4.37,4.68,4.68,0,0,0-2-4.07c0-1.74-.41-6.34-3.45-9.54A10.68,10.68,0,0,0,50,19.51a10.68,10.68,0,0,0-8.06,3.14c-3.08,3.21-3.47,7.85-3.51,9.58a4.65,4.65,0,0,0-2,4A4.51,4.51,0,0,0,39,40.62a13.91,13.91,0,0,0,4,6.36l-.27,2.31c0,.14-.09.26-.34.41l-7.29,2.11a8.16,8.16,0,0,0-3.36,1.74,9.7,9.7,0,0,0-3.31,5.53l-1.95,9.75,12.79,2.65.23,0a1.13,1.13,0,0,0,.22-2.23L29.18,67.08l1.51-7.55a7.35,7.35,0,0,1,2.53-4.24A5.88,5.88,0,0,1,35.71,54l7.36-2.13a2.93,2.93,0,0,0,.76-.36,2.81,2.81,0,0,0,.71-.75L49.25,55a1.11,1.11,0,0,0,1.5,0l4.71-4.21a2.64,2.64,0,0,0,1.48,1.11L64.39,54a5.83,5.83,0,0,1,2.39,1.27,7.4,7.4,0,0,1,2.53,4.24l1.51,7.55-12,2.48a1.12,1.12,0,0,0,.23,2.22.93.93,0,0,0,.23,0l14.16-2.93ZM50,52.62l-4.84-4.34L45.43,46l-.5-.39A11.54,11.54,0,0,1,41,39.4l-.2-.76L40,38.57c-.62-.06-1.29-1-1.29-2.31s.59-2.13,1.15-2.29l.09,0,.19-.1.18-.13.12-.16a.76.76,0,0,0,.12-.19.6.6,0,0,0,.06-.19.93.93,0,0,0,0-.23s0-.06,0-.09-.18-5.43,2.9-8.64A8.52,8.52,0,0,1,50,21.76a8.47,8.47,0,0,1,6.42,2.44c3.06,3.2,2.84,8.56,2.84,8.61s0,.08,0,.12a.78.78,0,0,0,0,.22,1.59,1.59,0,0,0,.07.2,1.88,1.88,0,0,0,.12.18,1,1,0,0,0,.13.16l.18.13.19.09.11.05c.57.14,1.18,1,1.18,2.3s-.67,2.25-1.3,2.31l-.79.07-.2.76a11.49,11.49,0,0,1-3.93,6.21l-.5.39.27,2.29Z"/><path class="cls-1" d="M59.62,64.35a.75.75,0,0,0,.21,0l6.82-1.28a1.12,1.12,0,0,0-.42-2.21l-6.82,1.28a1.12,1.12,0,0,0,.21,2.23Z"/></svg>