<svg id="Layer_1" data-name="Layer 1" xmlns="http://www.w3.org/2000/svg" viewBox="0 0 100 100"><defs><style>.cls-1{fill:#b00739;}.cls-2{fill:none;}.cls-3{fill:#4c4c4c;}</style></defs><title>providing-services</title><path class="cls-1" d="M76.63,23.69H23.37a3.63,3.63,0,0,0-3.62,3.63V64.45a3.63,3.63,0,0,0,3.62,3.62h5.12a1,1,0,0,0,1-1h0a1,1,0,0,0-1-1H24.34a2.66,2.66,0,0,1-2.66-2.65V28.29a2.67,2.67,0,0,1,2.66-2.67H76.63a1.7,1.7,0,0,1,1.69,1.7V63.49a2.65,2.65,0,0,1-2.65,2.65H71.52a1,1,0,0,0-1,1h0a1,1,0,0,0,1,1h5.11a3.63,3.63,0,0,0,3.62-3.62V27.32A3.63,3.63,0,0,0,76.63,23.69Z"/><path class="cls-1" d="M74.75,36.09H25.56a1,1,0,1,1,0-1.93H74.75a1,1,0,0,1,0,1.93Z"/><circle class="cls-1" cx="61.48" cy="30.24" r="1.31"/><circle class="cls-1" cx="67.25" cy="30.24" r="1.31"/><circle class="cls-1" cx="73.02" cy="30.24" r="1.31"/><polygon class="cls-2" points="40.13 68.26 39.39 69.5 40.13 70.75 41.68 70.75 42.43 69.5 41.68 68.26 40.13 68.26"/><path class="cls-2" d="M65,70.6a2.55,2.55,0,0,0-.14-.35,2.62,2.62,0,0,0-.34-.48l-.18-.2-5.78-5.78A2,2,0,0,1,55.72,61l-.37-.37-4.07,4.06.37.37a2.05,2.05,0,0,1,3.07,1.58,2.1,2.1,0,0,1-.27,1.21l5.78,5.79.18.16h0a2.38,2.38,0,0,0,.6.39,1.09,1.09,0,0,0,.23.09,2.91,2.91,0,0,0,1.7.11s.17-.05.33-.11a3.17,3.17,0,0,0,1.61-1.53A2.94,2.94,0,0,0,65,70.6Z"/><path class="cls-2" d="M46,67.44,58.09,55.31a.91.91,0,0,1,.87-.24,5.22,5.22,0,0,0,1.25.15,4.88,4.88,0,0,0,3.49-1.46,4.94,4.94,0,0,0,1.4-2.88L62.94,53a.89.89,0,0,1-.93.22L58.8,52.18a.9.9,0,0,1-.57-.57L57.16,48.4a.89.89,0,0,1,.22-.93l2.15-2.16a6.18,6.18,0,0,0-.62.12,5,5,0,0,0-3.57,6,.91.91,0,0,1-.24.87L43,64.45a.93.93,0,0,1-.86.24,4.74,4.74,0,0,0-1.24-.16,4.61,4.61,0,0,0-1.23.16,5,5,0,1,0,6.09,3.61.91.91,0,0,1,.23-.86Zm-2,2.47-1.21,2a.8.8,0,0,1-.67.38H39.69a.8.8,0,0,1-.67-.38l-1.21-2a.79.79,0,0,1,0-.81l1.21-2a.78.78,0,0,1,.67-.38h2.43a.78.78,0,0,1,.67.38l1.21,2A.79.79,0,0,1,44,69.91Z"/><path class="cls-3" d="M36.37,50.7a.94.94,0,0,0,.57.44l1.9.47,7,7,1.29-1.29-7.22-7.22a.93.93,0,0,0-.42-.24l-1.76-.44-1.6-2.8,1.15-1.16,2.81,1.6.44,1.76a.88.88,0,0,0,.24.43L48,56.51l1.28-1.29-7-7-.48-1.89a.89.89,0,0,0-.43-.57l-3.74-2.14a.92.92,0,0,0-1.1.15l-2.13,2.13a.92.92,0,0,0-.16,1.1Z"/><path class="cls-3" d="M42.79,67.08a.78.78,0,0,0-.67-.38H39.69a.78.78,0,0,0-.67.38l-1.21,2a.79.79,0,0,0,0,.81l1.21,2a.8.8,0,0,0,.67.38h2.43a.8.8,0,0,0,.67-.38l1.21-2a.79.79,0,0,0,0-.81Zm-.36,2.42-.75,1.25H40.13l-.74-1.25.74-1.24h1.55Z"/><path class="cls-3" d="M65.61,68.32,59.2,61.91a.91.91,0,0,0-1.29,0l-.26.26a.22.22,0,0,1-.32,0,.21.21,0,0,1-.07-.16.2.2,0,0,1,.07-.16l.27-.27a.92.92,0,0,0,0-1.29l-1-1,2.4-2.4a6.09,6.09,0,0,0,1.13.1h0A6.78,6.78,0,0,0,67,50.29a7.28,7.28,0,0,0-.2-1.68A.92.92,0,0,0,65.64,48a1,1,0,0,0-.42.23l-3.17,3.17-2.24-.75-.75-2.24,3.17-3.17a.92.92,0,0,0,0-1.29,1,1,0,0,0-.43-.24,6.8,6.8,0,0,0-8.23,4.91,7.28,7.28,0,0,0-.2,1.68,6.09,6.09,0,0,0,.1,1.13L42,62.81a7,7,0,0,0-1.12-.1A6.8,6.8,0,1,0,47.7,69.5a7.06,7.06,0,0,0-.1-1.12L50,66l1,1a.94.94,0,0,0,1.29,0l.26-.27a.24.24,0,0,1,.32,0,.22.22,0,0,1,0,.32l-.27.27a.91.91,0,0,0,0,1.28l6.38,6.38a4.69,4.69,0,1,0,6.67-6.6Zm-2.33,6c-.16.06-.33.1-.33.11a2.91,2.91,0,0,1-1.7-.11A1.09,1.09,0,0,1,61,74.2a2.38,2.38,0,0,1-.6-.39h0l-.18-.16-5.78-5.79a2.1,2.1,0,0,0,.27-1.21,2.05,2.05,0,0,0-3.07-1.58l-.37-.37,4.07-4.06.37.37a2,2,0,0,0,2.79,2.79l5.78,5.78.18.2a2.62,2.62,0,0,1,.34.48,2.55,2.55,0,0,1,.14.35,2.94,2.94,0,0,1-.06,2.16A3.17,3.17,0,0,1,63.28,74.29Zm-17.55-6a5,5,0,1,1-6.09-3.61,4.61,4.61,0,0,1,1.23-.16,4.74,4.74,0,0,1,1.24.16.93.93,0,0,0,.86-.24L55.1,52.32a.91.91,0,0,0,.24-.87,5,5,0,0,1,3.57-6,6.18,6.18,0,0,1,.62-.12l-2.15,2.16a.89.89,0,0,0-.22.93l1.07,3.21a.9.9,0,0,0,.57.57L62,53.25a.89.89,0,0,0,.93-.22l2.16-2.15a4.94,4.94,0,0,1-1.4,2.88,4.88,4.88,0,0,1-3.49,1.46A5.22,5.22,0,0,1,59,55.07a.91.91,0,0,0-.87.24L46,67.44h0A.91.91,0,0,0,45.73,68.3Z"/></svg>