<svg id="Layer_1" data-name="Layer 1" xmlns="http://www.w3.org/2000/svg" viewBox="0 0 30 30"><defs><style>.cls-1{fill:#b00739;}</style></defs><title>share</title><path class="cls-1" d="M8.43,19.11a2.47,2.47,0,1,0,1.74,4.21,2.47,2.47,0,0,0-1.74-4.21Z"/><path class="cls-1" d="M14.1,15.9a11.48,11.48,0,0,0-7.25-3.36H6.78a.82.82,0,0,0-.82.82v1.73a.79.79,0,0,0,.21.55.77.77,0,0,0,.54.26,8,8,0,0,1,5,2.37,8,8,0,0,1,2.37,5,.79.79,0,0,0,.26.54.77.77,0,0,0,.55.21h1.73a.82.82,0,0,0,.82-.89,11.43,11.43,0,0,0-1-3.93A11.32,11.32,0,0,0,14.1,15.9Z"/><path class="cls-1" d="M22.5,16.74a18.06,18.06,0,0,0-3.78-5.46A18,18,0,0,0,6.82,6h0A.84.84,0,0,0,6,6.78V8.62a.8.8,0,0,0,.23.56.76.76,0,0,0,.54.25A14.6,14.6,0,0,1,12,10.74a14.78,14.78,0,0,1,4.31,3,14.78,14.78,0,0,1,3,4.31,14.59,14.59,0,0,1,1.3,5.25.76.76,0,0,0,.25.54.81.81,0,0,0,.57.23h1.83a.79.79,0,0,0,.6-.26.76.76,0,0,0,.23-.6A17.93,17.93,0,0,0,22.5,16.74Z"/></svg>