<svg id="Layer_1" data-name="Layer 1" xmlns="http://www.w3.org/2000/svg" viewBox="0 0 50 50"><defs><style>.cls-1{fill:#b00739;}</style></defs><title>skill</title><path class="cls-1" d="M22.29,26.7a1.78,1.78,0,1,1-1.78-1.78A1.78,1.78,0,0,1,22.29,26.7Zm7.2-1.78a1.78,1.78,0,1,0,1.77,1.78A1.78,1.78,0,0,0,29.49,24.92Zm12.78.79v3.37a3.06,3.06,0,0,1-3.07,3.06H37C34.78,38.26,29.15,42,25,42s-9.78-3.69-12-9.81H10.8a3.06,3.06,0,0,1-3.07-3.06V25.71A3.06,3.06,0,0,1,9.34,23c0-4.78,1.43-8.52,4.15-11.1S20.06,8.05,25,8.05s8.81,1.3,11.51,3.86,4.12,6.32,4.15,11.1A3.06,3.06,0,0,1,42.27,25.71Zm-6.49,1c0-.79,0-1.53-.1-2.25-1.36-1.24-3.82-2.19-6.94-2.54a4.61,4.61,0,0,1,1,1.86c-1.91-1.5-5.66-1.14-8.49-4.5q-.24-.29-.42-.54h0c-.5-.68-.67-1.09-.68-.64C20,22,17.29,25,14.25,25.41c0,.42,0,.85,0,1.3a13.67,13.67,0,0,0,.72,4.46c1.71,2.07,4.53,2.65,7,2.8a3.17,3.17,0,0,1,2.71-1.25c1.65,0,3,.94,3,2.11s-1.33,2.11-3,2.11a3.12,3.12,0,0,1-2.77-1.35,14.76,14.76,0,0,1-5.37-1.2c2.4,3.54,6.13,5.42,8.46,5.42C28.66,39.81,35.78,35.18,35.78,26.71Zm3-4.06c-.2-8.35-5-12.76-13.82-12.76S11.38,14.3,11.18,22.65h1.18a14.62,14.62,0,0,1,2.73-6.91c2.2-2.84,5.54-4.28,9.91-4.28s7.71,1.44,9.91,4.28a14.62,14.62,0,0,1,2.73,6.91Z"/></svg>