<svg id="Layer_1" data-name="Layer 1" xmlns="http://www.w3.org/2000/svg" viewBox="0 0 100 100"><defs><style>.cls-1{fill:#b00739;}.cls-2{fill:#4c4c4c;}</style></defs><title>software-development</title><path class="cls-1" d="M76.09,72.19H22.83a3.63,3.63,0,0,1-3.62-3.62V31.43a3.63,3.63,0,0,1,3.62-3.62H76.09a3.63,3.63,0,0,1,3.62,3.62V68.57A3.63,3.63,0,0,1,76.09,72.19ZM22.83,29.74a1.69,1.69,0,0,0-1.69,1.69V68.57a1.69,1.69,0,0,0,1.69,1.69H76.09a1.69,1.69,0,0,0,1.69-1.69V31.43a1.69,1.69,0,0,0-1.69-1.69Z"/><path class="cls-1" d="M74.21,40.21H25a1,1,0,1,1,0-1.93H74.21a1,1,0,0,1,0,1.93Z"/><path class="cls-1" d="M47.13,64.15a1.24,1.24,0,0,1-.27,0,1,1,0,0,1-.66-1.2L50.82,47a1,1,0,0,1,1.2-.65,1,1,0,0,1,.65,1.19L48.06,63.46A1,1,0,0,1,47.13,64.15Z"/><circle class="cls-1" cx="60.94" cy="34.36" r="1.31"/><circle class="cls-1" cx="66.71" cy="34.36" r="1.31"/><circle class="cls-1" cx="72.48" cy="34.36" r="1.31"/><path class="cls-1" d="M56.72,64a.94.94,0,0,1-.68-.28,1,1,0,0,1,0-1.37l7.12-7.11L56,48.12a1,1,0,0,1,1.36-1.37l7.8,7.8a1,1,0,0,1,0,1.37l-7.8,7.8A.94.94,0,0,1,56.72,64Z"/><path class="cls-1" d="M42,64a.94.94,0,0,1-.68-.28l-7.8-7.8a1,1,0,0,1,0-1.37l7.8-7.8a1,1,0,0,1,1.36,1.37L35.6,55.24l7.11,7.11a1,1,0,0,1,0,1.37A.93.93,0,0,1,42,64Z"/><path class="cls-2" d="M92.78,47.55l-1.63-.27a9.19,9.19,0,0,0-.66-1.59l1-1.35a1.43,1.43,0,0,0-.15-1.85L89.85,41A1.45,1.45,0,0,0,88,40.88l-1.35,1A9.1,9.1,0,0,0,85,41.17l-.27-1.62a1.45,1.45,0,0,0-1.42-1.2h-1v1.31h1a.13.13,0,0,1,.12.11l.34,2a.67.67,0,0,0,.49.53,7.5,7.5,0,0,1,2.09.86.67.67,0,0,0,.72,0L88.76,42a.08.08,0,0,1,.07,0,.13.13,0,0,1,.09,0l1.45,1.45a.14.14,0,0,1,0,.17l-1.2,1.69a.67.67,0,0,0,0,.72A7.87,7.87,0,0,1,90,48a.62.62,0,0,0,.52.48l2,.35a.13.13,0,0,1,.11.13v2h0a.12.12,0,0,1-.11.13l-2,.34A.65.65,0,0,0,90,52a7.57,7.57,0,0,1-.84,2,.67.67,0,0,0,0,.72l1.2,1.69a.14.14,0,0,1,0,.17L88.91,58a.11.11,0,0,1-.09,0,.08.08,0,0,1-.07,0l-1.69-1.2a.65.65,0,0,0-.71,0,8.09,8.09,0,0,1-2,.85.64.64,0,0,0-.49.52l-.34,2.05a.13.13,0,0,1-.13.1h-1v1.31h1a1.43,1.43,0,0,0,1.42-1.2l.28-1.64a9.19,9.19,0,0,0,1.59-.66l1.35,1A1.45,1.45,0,0,0,89.84,59l1.45-1.45a1.43,1.43,0,0,0,.15-1.85l-1-1.36a9.43,9.43,0,0,0,.66-1.58l1.63-.28A1.42,1.42,0,0,0,94,51V49A1.42,1.42,0,0,0,92.78,47.55Z"/><path class="cls-2" d="M82.33,45v1.31a3.72,3.72,0,0,1,0,7.43V55a5,5,0,0,0,0-10.06Z"/><path class="cls-2" d="M7.22,52.44l1.63.28a9.19,9.19,0,0,0,.66,1.59l-1,1.35a1.43,1.43,0,0,0,.15,1.85L10.15,59a1.45,1.45,0,0,0,1.85.16l1.35-1a9.1,9.1,0,0,0,1.65.68l.27,1.62a1.45,1.45,0,0,0,1.42,1.2h1V60.34h-1a.13.13,0,0,1-.12-.11l-.34-2a.67.67,0,0,0-.49-.53,7.5,7.5,0,0,1-2.09-.86.67.67,0,0,0-.72,0l-1.68,1.21a.08.08,0,0,1-.07,0,.13.13,0,0,1-.09,0L9.63,56.59a.14.14,0,0,1,0-.17l1.2-1.69a.67.67,0,0,0,0-.72A7.87,7.87,0,0,1,10,52a.62.62,0,0,0-.52-.48l-2.05-.35A.13.13,0,0,1,7.32,51V49h0a.12.12,0,0,1,.11-.13l2-.34A.65.65,0,0,0,10,48a7.57,7.57,0,0,1,.84-2,.67.67,0,0,0,0-.72l-1.2-1.69a.14.14,0,0,1,0-.17L11.09,42a.11.11,0,0,1,.09,0,.08.08,0,0,1,.07,0l1.69,1.2a.65.65,0,0,0,.71,0,8.09,8.09,0,0,1,2-.85.64.64,0,0,0,.49-.52l.34-2.05a.13.13,0,0,1,.13-.1h1V38.35h-1a1.43,1.43,0,0,0-1.42,1.2L15,41.19a9.19,9.19,0,0,0-1.59.66l-1.35-1a1.45,1.45,0,0,0-1.85.16L8.71,42.49a1.43,1.43,0,0,0-.15,1.85l1,1.36a9.43,9.43,0,0,0-.66,1.58l-1.63.27A1.44,1.44,0,0,0,6,49v2A1.41,1.41,0,0,0,7.22,52.44Z"/><path class="cls-2" d="M17.67,55V53.72a3.72,3.72,0,0,1,0-7.43V45a5,5,0,0,0,0,10.06Z"/></svg>