<svg id="Layer_1" data-name="Layer 1" xmlns="http://www.w3.org/2000/svg" viewBox="0 0 100 100"><defs><style>.cls-1{fill:#b00739;}.cls-2{fill:#4c4c4c;}</style></defs><title>technology-consulting</title><path class="cls-1" d="M70.45,73.46H29.55a3.89,3.89,0,0,1-3.89-3.89v-26a3.89,3.89,0,0,1,3.89-3.89h9.24a1.56,1.56,0,1,1,0,3.11H29.55a.78.78,0,0,0-.78.78v26a.78.78,0,0,0,.78.78h40.9a.78.78,0,0,0,.78-.78v-26a.78.78,0,0,0-.78-.78H61.2a1.56,1.56,0,0,1,0-3.11h9.25a3.89,3.89,0,0,1,3.89,3.89v26A3.89,3.89,0,0,1,70.45,73.46Z"/><path class="cls-2" d="M43.83,57.14a1.56,1.56,0,0,1-1.55-1.56V33.13a1.36,1.36,0,0,0-1.36-1.36H36.78a1.56,1.56,0,0,1,0-3.11h4.14a4.47,4.47,0,0,1,4.47,4.47V55.58A1.56,1.56,0,0,1,43.83,57.14Z"/><path class="cls-2" d="M33.15,34.79a4.58,4.58,0,1,1,4.57-4.57A4.58,4.58,0,0,1,33.15,34.79Zm0-6a1.46,1.46,0,1,0,1.46,1.46A1.46,1.46,0,0,0,33.15,28.76Z"/><path class="cls-2" d="M67.28,34.79a4.58,4.58,0,1,1,4.57-4.57A4.58,4.58,0,0,1,67.28,34.79Zm0-6a1.46,1.46,0,1,0,1.46,1.46A1.46,1.46,0,0,0,67.28,28.76Z"/><path class="cls-2" d="M56.51,57.14A1.56,1.56,0,0,1,55,55.58V33.13a4.48,4.48,0,0,1,4.47-4.47h4.14a1.56,1.56,0,0,1,0,3.11H59.42a1.36,1.36,0,0,0-1.36,1.36V55.58A1.55,1.55,0,0,1,56.51,57.14Z"/><path class="cls-2" d="M50.15,27.11a4.57,4.57,0,1,1,4.58-4.57A4.58,4.58,0,0,1,50.15,27.11Zm0-6a1.46,1.46,0,1,0,1.46,1.46A1.46,1.46,0,0,0,50.15,21.08Z"/><path class="cls-2" d="M50,64.08a1.55,1.55,0,0,1-1.56-1.55v-32a1.56,1.56,0,0,1,3.12,0v32A1.55,1.55,0,0,1,50,64.08Z"/><path class="cls-1" d="M50,82a1.55,1.55,0,0,1-1.56-1.55V71.9a1.56,1.56,0,0,1,3.12,0v8.58A1.55,1.55,0,0,1,50,82Z"/><path class="cls-1" d="M60.52,82h-21a1.56,1.56,0,0,1,0-3.11h21a1.56,1.56,0,0,1,0,3.11Z"/></svg>