<svg id="Layer_1" data-name="Layer 1" xmlns="http://www.w3.org/2000/svg" viewBox="0 0 30 30"><defs><style>.cls-1{fill:#b00739;}</style></defs><title>twitter</title><path class="cls-1" d="M28.34,6.73a10.81,10.81,0,0,1-3.15.86,5.49,5.49,0,0,0,2.41-3A11.27,11.27,0,0,1,24.12,5.9a5.47,5.47,0,0,0-9.46,3.74,5.61,5.61,0,0,0,.14,1.24A15.5,15.5,0,0,1,3.52,5.17a5.47,5.47,0,0,0,1.7,7.3,5.48,5.48,0,0,1-2.48-.69v.07a5.48,5.48,0,0,0,4.39,5.37,5.76,5.76,0,0,1-1.45.19,5.89,5.89,0,0,1-1-.1,5.5,5.5,0,0,0,5.11,3.8A11,11,0,0,1,3,23.45a11.38,11.38,0,0,1-1.31-.08,15.45,15.45,0,0,0,8.39,2.46A15.45,15.45,0,0,0,25.62,10.27l0-.71A11.17,11.17,0,0,0,28.34,6.73Z"/></svg>