<svg id="Layer_1" data-name="Layer 1" xmlns="http://www.w3.org/2000/svg" viewBox="0 0 30 30"><defs><style>.cls-1{fill:#b00739;}</style></defs><title>youtube</title><path class="cls-1" d="M25,15.15a2.6,2.6,0,0,0-2.23-2A68.44,68.44,0,0,0,15,12.84a68.61,68.61,0,0,0-7.72.29,2.62,2.62,0,0,0-2.23,2A22.69,22.69,0,0,0,4.69,20a22,22,0,0,0,.36,4.87,2.6,2.6,0,0,0,2.23,2,70.87,70.87,0,0,0,7.72.28,71,71,0,0,0,7.72-.28,2.6,2.6,0,0,0,2.23-2A22,22,0,0,0,25.31,20,22.07,22.07,0,0,0,25,15.15ZM10.57,16.36H9.08v7.93H7.69V16.36H6.23v-1.3h4.34Zm3.77,7.93H13.09v-.75a2,2,0,0,1-1.42.85.78.78,0,0,1-.81-.51,3.86,3.86,0,0,1-.11-1V17.42H12v5.06A4.29,4.29,0,0,0,12,23c0,.2.13.3.29.3s.51-.2.79-.59V17.42h1.25v6.87Zm4.73-2.06a5.08,5.08,0,0,1-.13,1.38,1,1,0,0,1-1,.78,1.72,1.72,0,0,1-1.29-.76v.66H15.42V15.06h1.24v3A1.68,1.68,0,0,1,18,17.33a1,1,0,0,1,1,.78,4.93,4.93,0,0,1,.13,1.38Zm4.7-1.15H21.28V22.3c0,.64.21,1,.64,1a.54.54,0,0,0,.55-.5,5.89,5.89,0,0,0,0-.85h1.27v.18c0,.4,0,.68,0,.81a1.91,1.91,0,0,1-.29.74,1.74,1.74,0,0,1-1.51.75,1.79,1.79,0,0,1-1.51-.71,2.66,2.66,0,0,1-.4-1.61V19.66A2.63,2.63,0,0,1,20.43,18a1.9,1.9,0,0,1,3,0,2.71,2.71,0,0,1,.38,1.62v1.42Z"/><path class="cls-1" d="M21.91,18.45q-.63,0-.63,1V20h1.25v-.63C22.53,18.77,22.32,18.45,21.91,18.45Z"/><path class="cls-1" d="M17.28,18.45a.9.9,0,0,0-.62.31V23a.9.9,0,0,0,.62.31q.54,0,.54-.93V19.39C17.82,18.77,17.64,18.45,17.28,18.45Z"/><path class="cls-1" d="M18,12.21a2,2,0,0,0,1.44-.86v.76h1.26V5.16H19.42v5.31c-.28.4-.55.59-.8.59s-.27-.1-.29-.29a2.28,2.28,0,0,1,0-.49V5.16H17.06v5.5a3.48,3.48,0,0,0,.11,1A.77.77,0,0,0,18,12.21Z"/><path class="cls-1" d="M9.21,8.34v3.77h1.4V8.34l1.68-5.55H10.88l-1,3.66-1-3.66H7.46l.9,2.6A21.41,21.41,0,0,1,9.21,8.34Z"/><path class="cls-1" d="M14.16,12.21a1.73,1.73,0,0,0,1.47-.71A2.77,2.77,0,0,0,16,9.86V7.43a2.77,2.77,0,0,0-.39-1.64,1.73,1.73,0,0,0-1.47-.71,1.73,1.73,0,0,0-1.47.71,2.77,2.77,0,0,0-.39,1.64V9.86a2.77,2.77,0,0,0,.39,1.64A1.73,1.73,0,0,0,14.16,12.21Zm-.6-5c0-.65.19-1,.6-1s.6.32.6,1V10.1c0,.64-.19,1-.6,1s-.6-.32-.6-1Z"/></svg>